<svg width="200" height="200" viewBox="0 0 200 200" fill="none" xmlns="http://www.w3.org/2000/svg">
<rect width="200" height="200" fill="black"/>
<path d="M25.954 145V54.12H64.738C69.09 54.12 73.058 55.016 76.642 56.808C80.3113 58.5147 83.4687 60.8613 86.114 63.848C88.7593 66.7493 90.8073 70.0347 92.258 73.704C93.7087 77.3733 94.434 81.128 94.434 84.968C94.434 90.1733 93.1967 95.1227 90.722 99.816C88.3327 104.509 84.962 108.349 80.61 111.336C76.3433 114.237 71.266 115.688 65.378 115.688H46.946V145H25.954ZM46.946 97.384H64.098C65.7193 97.384 67.2127 96.9147 68.578 95.976C69.9433 95.0373 71.0527 93.6293 71.906 91.752C72.7593 89.8747 73.186 87.5707 73.186 84.84C73.186 82.024 72.674 79.72 71.65 77.928C70.7113 76.0507 69.474 74.6853 67.938 73.832C66.4873 72.9787 64.9513 72.552 63.33 72.552H46.946V97.384ZM105.704 145V54.12H146.664C150.931 54.12 154.856 55.016 158.44 56.808C162.109 58.5147 165.267 60.8613 167.912 63.848C170.557 66.7493 172.605 70.0347 174.056 73.704C175.592 77.3733 176.36 81.0853 176.36 84.84C176.36 88.5947 175.763 92.1787 174.568 95.592C173.373 98.92 171.667 101.949 169.448 104.68C167.229 107.325 164.584 109.501 161.512 111.208L181.48 145H158.312L140.904 115.688H126.696V145H105.704ZM126.696 97.384H145.896C147.603 97.384 149.096 96.872 150.376 95.848C151.741 94.7387 152.851 93.2453 153.704 91.368C154.557 89.4907 154.984 87.3147 154.984 84.84C154.984 82.3653 154.472 80.232 153.448 78.44C152.509 76.5627 151.315 75.112 149.864 74.088C148.413 73.064 146.877 72.552 145.256 72.552H126.696V97.384Z" fill="white"/>
</svg>
