<svg width="195" height="368" viewBox="0 0 195 368" fill="none" xmlns="http://www.w3.org/2000/svg">
<path d="M79.1974 28.8314C82.5891 27.7554 85.8283 26.6776 89.1057 25.7329C90.2687 25.3976 90.5634 24.8281 90.5551 23.6711C90.5003 16.4751 90.5269 9.27856 90.5269 2.08216C90.5269 1.48452 90.5269 0.886889 90.5269 0C96.1768 1.03998 101.672 1.80352 107.04 3.09305C117.04 5.49518 126.974 8.1759 136.917 10.8117C138.554 11.2456 140.103 12.0213 141.679 12.6734C148.873 15.6517 152.678 21.198 153.338 28.798C153.843 34.62 154.116 40.4806 154.123 46.3246C154.174 86.5753 154.157 126.826 154.071 167.077C154.063 171.204 153.633 175.354 153.085 179.451C152.137 186.528 148.059 191.469 141.595 194.143C134.856 196.93 127.949 199.327 121.055 201.721C115.597 203.616 110.048 205.25 104.435 207.033C104.435 212.61 104.435 218.145 104.435 223.813C99.7805 223.813 95.2537 223.813 90.5261 223.813C90.5261 219.339 90.5244 214.907 90.5261 210.475C90.5269 207.069 90.5294 207.066 87.2346 205.985C78.1542 203.006 69.0619 200.063 60.0014 197.026C57.8157 196.293 55.7212 195.278 53.6074 194.342C46.2462 191.081 42.1695 185.384 41.5139 177.405C41.08 172.125 40.813 166.814 40.8055 161.517C40.7599 129.378 40.7628 97.2385 40.8834 65.0993C40.9003 60.612 41.4267 56.092 42.124 51.651C42.9771 46.2182 45.96 41.8727 50.8953 39.4931C56.5272 36.7777 62.4238 34.5915 68.2762 32.3614C71.8009 31.0183 75.4607 30.0298 79.1974 28.8314ZM139.507 119.636C139.507 94.6327 139.519 69.6308 139.491 44.6285C139.488 41.7062 139.284 38.7827 139.128 35.8622C138.795 29.6521 135.75 25.3664 129.812 23.4405C124.199 21.6198 118.517 20.005 112.834 18.4118C110.109 17.6478 107.312 17.143 104.505 16.5114C104.505 75.3733 104.505 134.004 104.505 192.84C106.666 192.127 108.69 191.514 110.677 190.794C117.424 188.344 124.222 186.019 130.874 183.331C135.698 181.382 138.477 177.562 139.047 172.303C139.244 170.487 139.433 168.658 139.439 166.834C139.486 151.223 139.49 135.613 139.507 119.636ZM61.9278 50.1027C58.5285 52.1795 56.5445 55.2432 56.0841 59.1461C55.6923 62.4667 55.4537 65.826 55.4488 69.1685C55.4026 100.442 55.412 131.716 55.4372 162.99C55.4395 165.79 55.6125 168.593 55.7994 171.389C56.1857 177.169 59.0663 181.309 64.3997 183.5C69.5146 185.601 74.731 187.461 79.935 189.338C83.3553 190.571 86.8328 191.646 90.4323 192.842C90.4323 141.643 90.4323 90.6505 90.4323 39.4352C87.8497 40.2844 85.3443 41.0052 82.9153 41.9269C75.9775 44.5593 69.0707 47.2733 61.9278 50.1027Z" fill="white"/>
<path d="M87.9961 285.215C87.9961 291.737 87.9961 298.075 87.9961 304.553C90.0615 304.553 92.0356 304.553 94.2006 304.553C94.2006 293.656 94.2006 282.721 94.2006 271.662C95.4474 271.662 96.51 271.662 97.7602 271.662C97.7602 282.624 97.7602 293.562 97.7602 304.592C99.9294 304.592 101.914 304.592 104.087 304.592C104.087 293.652 104.087 282.717 104.087 271.661C105.334 271.661 106.399 271.661 107.567 271.661C107.567 283.697 107.567 295.726 107.567 307.845C99.936 307.845 92.3975 307.845 84.7129 307.845C84.7129 295.808 84.7129 283.772 84.7129 271.637C85.7331 271.637 86.7982 271.637 87.9961 271.637C87.9961 276.157 87.9961 280.595 87.9961 285.215Z" fill="white"/>
<path d="M20.3696 332.296C20.528 336.815 20.6822 341.193 20.7464 345.573C20.7874 348.373 20.8035 351.182 20.6355 353.975C20.429 357.406 19.3748 358.51 15.9486 359.265C14.7123 359.538 13.452 359.701 12.0787 359.936C12.0787 361.13 12.0787 362.266 12.0787 363.525C10.9413 363.525 9.94043 363.525 8.8175 363.525C8.8175 362.368 8.8175 361.228 8.8175 359.943C7.31248 359.676 5.88429 359.474 4.47979 359.164C1.37604 358.48 0.123785 357.177 0.0752694 354.023C-0.0268251 347.385 -0.0258261 340.743 0.0829523 334.106C0.13355 331.019 1.30763 329.778 4.35186 329.031C5.75772 328.687 7.2009 328.494 8.70095 328.219C8.75391 327.234 8.80538 326.279 8.85984 325.266C9.8976 325.266 10.8507 325.266 11.9221 325.266C11.9852 326.277 12.0443 327.223 12.1026 328.157C15.1019 329.072 18.8744 328.249 20.3696 332.296ZM3.65273 355.255C5.25921 355.898 6.8657 356.541 8.65695 357.259C8.65695 348.255 8.65695 339.841 8.65695 331.259C7.49144 331.451 6.47068 331.57 5.47424 331.796C4.08316 332.111 3.16942 332.96 3.16445 334.452C3.14297 340.896 3.15649 347.339 3.18038 353.783C3.1819 354.192 3.37929 354.601 3.65273 355.255ZM12.0129 352.719C12.0129 354.09 12.0129 355.462 12.0129 356.932C13.0217 356.8 13.7476 356.73 14.4648 356.608C16.7881 356.214 17.5707 355.435 17.5897 353.101C17.6388 347.066 17.5826 341.029 17.6038 334.994C17.6104 333.11 16.7375 332.009 14.9141 331.656C14.0308 331.485 13.1355 331.377 12.0129 331.204C12.0129 338.368 12.0129 345.362 12.0129 352.719Z" fill="white"/>
<path d="M169.395 340.022C169.377 339.514 169.356 339.174 169.335 338.833C169.212 338.796 169.09 338.759 168.968 338.721C168.787 339.236 168.591 339.745 168.426 340.265C166.241 347.167 164.071 354.074 161.876 360.973C160.977 363.8 160.957 363.793 157.766 363.535C157.766 351.513 157.766 339.483 157.766 327.406C158.85 327.406 159.864 327.406 161.032 327.406C161.032 335.732 161.032 343.982 161.032 352.232C161.171 352.263 161.309 352.294 161.447 352.326C161.916 350.87 162.392 349.418 162.852 347.96C164.737 341.983 166.622 336.007 168.496 330.026C169.388 327.176 169.377 327.172 172.648 327.437C172.648 339.395 172.648 351.365 172.648 363.488C171.673 363.488 170.624 363.488 169.393 363.488C169.393 355.748 169.393 347.968 169.395 340.022Z" fill="white"/>
<path d="M61.3594 327.501C61.5189 337.844 61.5461 348.073 61.5728 358.302C61.5746 358.961 61.5731 359.62 61.5731 360.362C62.3565 360.443 63.0006 360.508 63.7484 360.584C63.7484 362.89 63.7484 365.174 63.7484 367.526C62.6979 367.526 61.6822 367.526 60.4948 367.526C60.4948 366.273 60.4948 365.081 60.4948 363.768C56.7689 363.768 53.2114 363.768 49.492 363.768C49.492 364.946 49.492 366.138 49.492 367.463C48.2785 367.463 47.2199 367.463 46.0762 367.463C46.0762 365.226 46.0762 362.987 46.0762 360.631C46.7584 360.548 47.4525 360.464 48.3187 360.36C48.3187 359.708 48.3183 359.115 48.3188 358.524C48.3262 350.544 48.3 342.565 48.3526 334.586C48.3893 329.015 49.829 327.565 55.3845 327.374C57.3295 327.307 59.2793 327.379 61.3594 327.501ZM51.7662 349.068C51.7662 352.825 51.7662 356.581 51.7662 360.371C53.9921 360.371 56.0088 360.371 58.0094 360.371C58.0094 350.341 58.0094 340.453 58.0094 330.456C57.227 330.456 56.5691 330.44 55.9123 330.458C52.3082 330.555 51.8412 330.977 51.7945 334.645C51.7347 339.33 51.7712 344.017 51.7662 349.068Z" fill="white"/>
<path d="M133.449 353.642C133.449 344.813 133.449 336.166 133.449 327.422C134.621 327.422 135.627 327.422 136.809 327.422C136.809 338.407 136.809 349.348 136.809 360.387C139.333 360.387 141.686 360.387 144.258 360.387C144.258 349.469 144.258 338.539 144.258 327.466C145.522 327.466 146.574 327.466 147.814 327.466C147.814 338.421 147.814 349.364 147.814 360.367C148.52 360.444 149.048 360.503 149.684 360.572C149.684 362.874 149.684 365.161 149.684 367.527C148.65 367.527 147.629 367.527 146.436 367.527C146.436 366.333 146.436 365.147 146.436 363.715C142.054 363.715 137.832 363.715 133.449 363.715C133.449 360.255 133.449 357.04 133.449 353.642Z" fill="white"/>
<path d="M141.415 306.36C142.452 301.658 143.452 297.093 144.469 292.443C141.942 291.534 141.128 289.582 141.123 287.231C141.116 283.46 141.146 279.685 141.292 275.917C141.373 273.851 142.616 272.406 144.635 272.123C147.678 271.699 150.764 271.578 153.922 271.321C153.922 283.715 153.922 295.698 153.922 307.814C152.831 307.814 151.771 307.814 150.512 307.814C150.512 302.995 150.512 298.161 150.512 293.369C147.829 292.843 147.831 292.843 147.294 295.306C146.39 299.461 145.484 303.616 144.561 307.848C143.472 307.848 142.461 307.848 141.288 307.848C141.318 307.399 141.347 306.948 141.415 306.36ZM146.631 274.83C145.114 275.035 144.631 276.086 144.604 277.419C144.547 280.154 144.5 282.89 144.533 285.625C144.572 288.907 145.153 289.516 148.405 289.876C149.04 289.946 149.69 289.886 150.336 289.886C150.336 284.792 150.336 279.788 150.336 274.796C149.109 274.796 148.024 274.796 146.631 274.83Z" fill="white"/>
<path d="M195 357.302C195 359.48 195 361.476 195 363.549C193.776 363.549 192.707 363.549 191.474 363.549C191.474 358.666 191.474 353.879 191.474 348.984C190.561 348.888 189.799 348.809 188.842 348.709C187.744 353.687 186.66 358.598 185.565 363.566C184.455 363.566 183.439 363.566 182.138 363.566C183.253 358.438 184.355 353.373 185.486 348.168C182.674 347.254 182.138 344.987 182.119 342.485C182.094 339.195 182.044 335.901 182.195 332.617C182.343 329.379 183.466 328.101 186.707 327.665C189.347 327.309 192.04 327.339 195 327.183C195 337.307 195 347.213 195 357.302ZM191.51 334.802C191.51 333.417 191.51 332.032 191.51 330.489C190.602 330.489 189.889 330.469 189.179 330.492C186.165 330.592 185.607 331.146 185.552 334.218C185.512 336.47 185.525 338.724 185.536 340.977C185.556 344.806 186.223 345.48 190.116 345.655C190.525 345.673 190.935 345.657 191.51 345.657C191.51 342.076 191.51 338.621 191.51 334.802Z" fill="white"/>
<path d="M117.419 299.12C117.419 289.867 117.419 280.796 117.419 271.633C118.617 271.633 119.683 271.633 120.881 271.633C120.881 276.758 120.881 281.799 120.881 286.936C123.357 286.936 125.703 286.936 128.215 286.936C128.215 281.873 128.215 276.846 128.215 271.678C129.437 271.678 130.498 271.678 131.677 271.678C131.677 283.675 131.677 295.703 131.677 307.833C130.638 307.833 129.631 307.833 128.392 307.833C128.392 302.024 128.392 296.218 128.392 290.312C125.808 290.312 123.452 290.312 120.892 290.312C120.892 296.107 120.892 301.921 120.892 307.833C119.686 307.833 118.68 307.833 117.419 307.833C117.419 304.98 117.419 302.142 117.419 299.12Z" fill="white"/>
<path d="M124.186 363.642C123.118 363.769 122.605 363.541 122.484 362.458C122.195 359.861 121.763 357.28 121.371 354.566C118.941 354.566 116.537 354.566 113.913 354.566C113.48 357.494 113.04 360.478 112.587 363.547C111.405 363.547 110.277 363.547 108.954 363.547C110.763 351.46 112.554 339.491 114.358 327.432C116.488 327.432 118.54 327.432 120.894 327.432C122.7 339.363 124.518 351.37 126.376 363.642C125.615 363.642 124.978 363.642 124.186 363.642ZM114.454 351.161C116.546 351.259 118.638 351.356 120.989 351.466C119.914 344.273 119.149 337.349 117.964 330.493C117.712 330.511 117.46 330.528 117.208 330.546C116.254 337.32 115.298 344.095 114.454 351.161Z" fill="white"/>
<path d="M64.5557 278.658C64.5799 278.253 64.6042 277.849 64.7782 277.277C64.9122 276.89 64.8965 276.67 64.8808 276.451C64.916 275.931 64.9513 275.41 65.1388 274.72C65.2783 274.331 65.2658 274.111 65.2532 273.891C65.3204 273.174 65.3876 272.456 65.463 271.649C67.6682 271.649 69.7657 271.649 71.9524 271.649C73.7776 283.724 75.5933 295.735 77.4253 307.856C76.1636 307.856 75.0888 307.856 73.8006 307.856C73.3692 304.919 72.931 301.936 72.4721 298.812C70.0673 298.812 67.6646 298.812 65.0235 298.812C64.5969 301.7 64.1565 304.681 63.6962 307.795C62.5602 307.795 61.4483 307.795 60.1348 307.795C61.0924 300.948 62.0465 294.127 63.1561 287.113C63.3608 286.606 63.41 286.292 63.4591 285.977C63.7426 283.86 64.0261 281.743 64.459 279.453C64.5909 279.073 64.5733 278.865 64.5557 278.658ZM69.4687 276.725C69.3252 276.069 69.1817 275.414 69.0383 274.759C68.805 274.759 68.5717 274.76 68.3385 274.76C67.3357 281.624 66.3329 288.489 65.3092 295.497C67.7032 295.497 69.7904 295.497 72.0114 295.497C71.17 289.266 70.3447 283.154 69.4687 276.725Z" fill="white"/>
<path d="M93.9487 352.182C93.9487 356.065 93.9487 359.764 93.9487 363.546C92.7226 363.546 91.6583 363.546 90.5684 363.546C90.5684 351.471 90.5684 339.498 90.5684 327.143C93.6224 327.357 96.5919 327.396 99.5065 327.819C101.951 328.174 103.145 329.572 103.233 332.09C103.377 336.224 103.377 340.372 103.227 344.505C103.136 347.019 101.864 348.3 99.2973 348.849C97.5922 349.214 95.8381 349.349 93.9487 349.608C93.9487 350.445 93.9487 351.222 93.9487 352.182ZM99.8526 332.91C99.1836 330.546 97.8445 330.022 94.0823 330.678C94.0823 335.857 94.0823 341.045 94.0823 346.348C94.8295 346.284 95.4305 346.255 96.0257 346.178C99.4915 345.729 99.924 345.28 99.9539 341.805C99.978 338.946 99.9132 336.087 99.8526 332.91Z" fill="white"/>
<path d="M41.3898 271.645C45.2787 271.645 49.1676 271.645 53.1436 271.645C53.1436 272.65 53.1436 273.658 53.1436 274.833C50.279 274.833 47.4404 274.833 44.4417 274.833C44.4417 278.272 44.4124 281.547 44.4826 284.821C44.4905 285.188 45.0032 285.756 45.3845 285.862C46.2404 286.101 47.165 286.22 48.0545 286.189C51.3936 286.071 53.5562 287.684 53.7213 290.99C53.9216 294.998 53.8975 299.03 53.7163 303.04C53.5896 305.845 52.3528 307.148 49.5521 307.529C46.8037 307.903 44.0048 307.905 41.0176 308.084C41.0176 299.512 41.0176 291.249 41.2101 282.82C41.8891 282.257 42.6899 281.934 42.8053 281.448C43.2071 279.757 43.3509 278.008 43.6313 276.286C43.9753 274.174 44.6899 273.784 46.7509 273.791C47.9041 273.796 49.0596 273.203 50.214 272.879C50.1837 272.6 50.1534 272.321 50.1231 272.042C47.2179 272.042 44.3127 272.042 41.4028 271.943C41.3955 271.777 41.3926 271.711 41.3898 271.645ZM50.4737 294.23C50.4299 289.582 49.3812 288.642 44.5416 289.014C44.5416 294.203 44.5416 299.4 44.5416 304.741C45.3709 304.741 46.0917 304.757 46.8117 304.739C49.7382 304.663 50.323 304.121 50.425 301.164C50.5007 298.973 50.4618 296.777 50.4737 294.23Z" fill="white"/>
<path d="M28.9883 339.372C28.9883 335.305 28.9883 331.423 28.9883 327.434C32.8991 327.434 36.6388 327.434 40.4835 327.434C40.4835 328.43 40.4835 329.367 40.4835 330.496C37.8265 330.496 35.2411 330.496 32.5535 330.496C32.5535 334.621 32.5535 338.56 32.5535 342.682C35.0222 342.682 37.5513 342.682 40.2223 342.682C40.2223 343.852 40.2223 344.841 40.2223 346.006C37.6875 346.006 35.1539 346.006 32.556 346.006C32.556 350.892 32.556 355.608 32.556 360.497C35.2504 360.497 37.8408 360.497 40.5075 360.497C40.5075 361.566 40.5075 362.464 40.5075 363.504C36.7137 363.504 32.9227 363.504 28.9883 363.504C28.9883 355.494 28.9883 347.525 28.9883 339.372Z" fill="white"/>
<path d="M80.8426 342.781C81.549 342.809 82.0822 342.838 82.6865 342.87C82.6865 343.888 82.6865 344.788 82.6865 345.913C80.1397 345.913 77.5606 345.913 74.8963 345.913C74.8963 350.853 74.8963 355.568 74.8963 360.457C77.5717 360.457 80.1581 360.457 82.8507 360.457C82.8507 361.569 82.8507 362.51 82.8507 363.548C79.0685 363.548 75.3167 363.548 71.4639 363.548C71.4639 351.535 71.4639 339.564 71.4639 327.461C75.2114 327.461 78.9576 327.461 82.8341 327.461C82.8341 328.353 82.8341 329.294 82.8341 330.426C80.2606 330.426 77.6785 330.426 74.9511 330.426C74.9511 334.587 74.9511 338.568 74.9511 342.782C76.8046 342.782 78.7371 342.782 80.8426 342.781Z" fill="white"/>
<path d="M41.4061 272.043C44.3114 272.043 47.2166 272.043 50.1219 272.043C50.1522 272.321 50.1824 272.6 50.2127 272.879C49.0583 273.202 47.9028 273.796 46.7498 273.792C44.6886 273.784 43.974 274.174 43.6301 276.286C43.3497 278.007 43.2058 279.757 42.804 281.448C42.6886 281.934 41.8879 282.257 41.2564 282.654C41.0778 279.232 41.0443 275.809 41.1233 272.22C41.2359 272.053 41.4061 272.043 41.4061 272.043Z" fill="white"/>
<path d="M63.3941 286.067C63.4101 286.292 63.3609 286.606 63.2299 286.973C63.2083 286.736 63.2686 286.446 63.3941 286.067Z" fill="white"/>
<path d="M64.4972 278.712C64.573 278.865 64.5906 279.073 64.5244 279.324C64.44 279.167 64.4395 278.966 64.4972 278.712Z" fill="white"/>
<path d="M65.1925 273.967C65.2654 274.111 65.278 274.33 65.2113 274.581C65.1322 274.422 65.1323 274.233 65.1925 273.967Z" fill="white"/>
<path d="M64.82 276.527C64.8962 276.671 64.9119 276.89 64.8485 277.141C64.7662 276.983 64.7628 276.794 64.82 276.527Z" fill="white"/>
<path d="M41.4028 271.943C41.4074 272.043 41.2371 272.053 41.1519 272.051C41.0955 271.912 41.1243 271.776 41.2715 271.642C41.3926 271.711 41.3954 271.777 41.4028 271.943Z" fill="white"/>
</svg>
