<svg width="64" height="64" viewBox="0 0 64 64" fill="none" xmlns="http://www.w3.org/2000/svg">
<mask id="mask0_97_7" style="mask-type:luminance" maskUnits="userSpaceOnUse" x="0" y="0" width="64" height="64">
<path d="M64 0H0V64H64V0Z" fill="white"/>
</mask>
<g mask="url(#mask0_97_7)">
<path d="M3.06562 60.658V39.436H0V63.7076H13.6483V60.658H3.06562ZM40.8189 50.1723L36.9974 60.4491L33.1759 50.1723H29.8163L34.9396 63.6658H39.0551L44.1785 50.1723H40.8189ZM60.9764 63.6658H64.042V39.3943H60.9764V63.6658ZM26.0787 55.2689H18.3937C19.4436 51.8851 25.1129 51.8433 26.0787 55.2689ZM22.2572 49.8799C18.0577 49.8799 15.0761 52.7624 15.1181 56.9399C15.1601 61.1593 18.0157 64 22.3832 64C25.1969 64 27.8845 62.5796 29.0184 59.2794H25.7008C23.937 62.4961 18.5617 61.4517 18.3097 58.0679H29.3123C29.8583 53.4308 26.7507 49.8799 22.2572 49.8799ZM55.6011 55.2689H47.916C48.9659 51.8851 54.6352 51.8433 55.6011 55.2689ZM51.7795 49.8799C47.5801 49.8799 44.5984 52.7624 44.6404 56.9399C44.6824 61.1593 47.5381 64 51.9055 64C54.7192 64 57.4068 62.5796 58.5407 59.2794H55.2231C53.4593 62.4961 48.084 61.4517 47.832 58.0679H58.7927C59.3806 53.4308 56.273 49.8799 51.7795 49.8799ZM60.9764 3.04958V36.4282H64.042V0.041748H0V36.4282H3.06562V3.04958H60.9764Z" fill="white"/>
</g>
</svg>
