<svg width="410" height="197" viewBox="0 0 410 197" fill="none" xmlns="http://www.w3.org/2000/svg">
<path d="M39.192 46V18.928L29.4 38.64H23.64L13.848 18.928V46H3.352V0.559998H14.744L26.52 24.304L38.36 0.559998H49.688V46H39.192ZM69.8705 0.559998H81.1985L96.8145 46H86.0625L82.5425 35.824H68.3985L64.9425 46H54.1905L69.8705 0.559998ZM80.8145 28.592L75.5025 11.12L70.0625 28.592H80.8145ZM101.29 46V0.559998H111.786V20.144L128.426 0.559998H140.202L123.178 20.848L141.354 46H129.322L116.522 27.76L111.786 32.624V46H101.29ZM171.991 13.872C171.863 13.6587 171.415 13.3387 170.647 12.912C169.879 12.4427 168.919 11.952 167.767 11.44C166.615 10.928 165.356 10.48 163.991 10.096C162.626 9.712 161.26 9.52 159.895 9.52C158.103 9.52 156.716 9.84 155.735 10.48C154.754 11.0773 154.263 12.016 154.263 13.296C154.263 14.32 154.626 15.1307 155.351 15.728C156.119 16.3253 157.207 16.8587 158.615 17.328C160.023 17.7547 161.751 18.2667 163.799 18.864C166.7 19.632 169.218 20.5707 171.351 21.68C173.484 22.7467 175.106 24.1333 176.215 25.84C177.367 27.5467 177.943 29.808 177.943 32.624C177.943 35.184 177.474 37.36 176.535 39.152C175.596 40.9013 174.316 42.3307 172.695 43.44C171.116 44.5067 169.303 45.296 167.255 45.808C165.207 46.2773 163.095 46.512 160.919 46.512C158.7 46.512 156.418 46.2987 154.071 45.872C151.767 45.4027 149.548 44.7627 147.415 43.952C145.282 43.0987 143.319 42.0747 141.527 40.88L146.135 31.728C146.306 31.9413 146.86 32.3467 147.799 32.944C148.738 33.4987 149.89 34.096 151.255 34.736C152.663 35.3333 154.22 35.8667 155.927 36.336C157.634 36.8053 159.362 37.04 161.111 37.04C162.988 37.04 164.375 36.7413 165.271 36.144C166.21 35.5467 166.679 34.7147 166.679 33.648C166.679 32.496 166.188 31.6 165.207 30.96C164.268 30.32 162.967 29.744 161.303 29.232C159.682 28.72 157.804 28.144 155.671 27.504C152.898 26.6507 150.594 25.6907 148.759 24.624C146.967 23.5573 145.623 22.256 144.727 20.72C143.874 19.184 143.447 17.264 143.447 14.96C143.447 11.76 144.194 9.072 145.687 6.896C147.223 4.67733 149.271 3.01333 151.831 1.904C154.391 0.751999 157.186 0.175999 160.215 0.175999C162.348 0.175999 164.396 0.431998 166.359 0.943996C168.364 1.456 170.22 2.096 171.927 2.864C173.676 3.632 175.234 4.4 176.599 5.168L171.991 13.872ZM184.102 46V0.559998H194.598V46H184.102ZM239.13 46V18.928L229.338 38.64H223.578L213.786 18.928V46H203.29V0.559998H214.682L226.458 24.304L238.298 0.559998H249.626V46H239.13ZM278.256 46.384C274.843 46.384 271.749 45.744 268.976 44.464C266.245 43.1413 263.877 41.392 261.872 39.216C259.909 36.9973 258.395 34.5227 257.328 31.792C256.261 29.0187 255.728 26.16 255.728 23.216C255.728 20.1867 256.283 17.3067 257.392 14.576C258.544 11.8453 260.123 9.41333 262.128 7.28C264.176 5.104 266.587 3.39733 269.36 2.16C272.133 0.922663 275.163 0.303997 278.448 0.303997C281.819 0.303997 284.869 0.965331 287.6 2.288C290.373 3.568 292.741 5.31733 294.704 7.536C296.709 9.75467 298.245 12.2507 299.312 15.024C300.379 17.7547 300.912 20.5493 300.912 23.408C300.912 26.4373 300.357 29.3173 299.248 32.048C298.139 34.7787 296.56 37.232 294.512 39.408C292.464 41.5413 290.053 43.248 287.28 44.528C284.549 45.7653 281.541 46.384 278.256 46.384ZM266.416 23.344C266.416 25.0933 266.672 26.8 267.184 28.464C267.696 30.0853 268.443 31.536 269.424 32.816C270.448 34.096 271.707 35.12 273.2 35.888C274.693 36.656 276.4 37.04 278.32 37.04C280.325 37.04 282.075 36.656 283.568 35.888C285.061 35.0773 286.299 34.0107 287.28 32.688C288.261 31.3653 288.987 29.8933 289.456 28.272C289.968 26.608 290.224 24.9227 290.224 23.216C290.224 21.4667 289.968 19.7813 289.456 18.16C288.944 16.5387 288.176 15.088 287.152 13.808C286.128 12.4853 284.869 11.4613 283.376 10.736C281.883 10.0107 280.197 9.648 278.32 9.648C276.315 9.648 274.565 10.032 273.072 10.8C271.621 11.568 270.384 12.6133 269.36 13.936C268.379 15.216 267.632 16.688 267.12 18.352C266.651 19.9733 266.416 21.6373 266.416 23.344ZM311.757 0.559998L322.445 33.712L333.005 0.559998H344.077L327.565 46H317.26L300.62 0.559998H311.757ZM356.058 0.559998H367.386L383.002 46H372.25L368.73 35.824H354.586L351.13 46H340.378L356.058 0.559998ZM367.002 28.592L361.69 11.12L356.25 28.592H367.002ZM32.408 121L11.544 98.792C9.752 96.872 8.32267 95.2293 7.256 93.864C6.18933 92.4987 5.42133 91.24 4.952 90.088C4.52533 88.8933 4.312 87.6133 4.312 86.248C4.312 83.944 4.86667 81.96 5.976 80.296C7.08533 78.5893 8.6 77.288 10.52 76.392C12.4827 75.4533 14.68 74.984 17.112 74.984C19.288 74.984 21.336 75.368 23.256 76.136C25.176 76.8613 26.7547 77.992 27.992 79.528C29.2293 81.064 29.848 83.0267 29.848 85.416C29.848 87.464 29.3573 89.3413 28.376 91.048C27.4373 92.712 26.136 94.248 24.472 95.656C22.8507 97.064 21.016 98.3867 18.968 99.624C17.4747 100.52 16.1307 101.395 14.936 102.248C13.784 103.059 12.8667 103.912 12.184 104.808C11.544 105.704 11.224 106.685 11.224 107.752C11.224 108.648 11.48 109.565 11.992 110.504C12.5467 111.4 13.336 112.147 14.36 112.744C15.4267 113.341 16.6853 113.64 18.136 113.64C19.7573 113.64 21.3787 113.235 23 112.424C24.6213 111.571 26.0933 110.355 27.416 108.776C28.7813 107.197 29.848 105.277 30.616 103.016C31.4267 100.755 31.832 98.1947 31.832 95.336H40.088C40.088 99.6453 39.4267 103.443 38.104 106.728C36.7813 110.013 35.0107 112.765 32.792 114.984C30.616 117.203 28.1627 118.867 25.432 119.976C22.7013 121.085 19.9067 121.64 17.048 121.64C13.7627 121.64 10.9467 120.979 8.6 119.656C6.25333 118.291 4.46133 116.563 3.224 114.472C2.02933 112.339 1.432 110.077 1.432 107.688C1.432 105.256 1.98667 103.144 3.096 101.352C4.20533 99.5173 5.592 97.9173 7.256 96.552C8.96267 95.1867 10.648 93.992 12.312 92.968C14.1467 91.7733 15.6613 90.8133 16.856 90.088C18.0507 89.32 18.9467 88.5947 19.544 87.912C20.1413 87.2293 20.44 86.44 20.44 85.544C20.44 84.6053 20.12 83.8587 19.48 83.304C18.8827 82.7493 18.0933 82.472 17.112 82.472C16.4293 82.472 15.8107 82.6427 15.256 82.984C14.7013 83.2827 14.2747 83.688 13.976 84.2C13.72 84.6693 13.592 85.224 13.592 85.864C13.592 86.4613 13.7627 87.0373 14.104 87.592C14.488 88.104 15.1067 88.7867 15.96 89.64C16.856 90.4933 18.072 91.752 19.608 93.416L45.848 121H32.408ZM102.483 109.352C102.483 111.955 101.779 114.131 100.371 115.88C99.0052 117.587 97.1492 118.867 94.8025 119.72C92.4558 120.573 89.8745 121 87.0585 121H64.9145V75.56H90.1945C92.3278 75.56 94.1625 76.136 95.6985 77.288C97.2772 78.3973 98.4718 79.848 99.2825 81.64C100.136 83.432 100.562 85.288 100.562 87.208C100.562 89.3413 100.008 91.3893 98.8985 93.352C97.7892 95.272 96.1678 96.7227 94.0345 97.704C96.6372 98.472 98.6852 99.8373 100.179 101.8C101.715 103.763 102.483 106.28 102.483 109.352ZM91.7945 107.24C91.7945 106.259 91.6025 105.405 91.2185 104.68C90.8345 103.912 90.3225 103.315 89.6825 102.888C89.0852 102.419 88.3598 102.184 87.5065 102.184H75.4105V112.104H87.0585C87.9545 112.104 88.7438 111.891 89.4265 111.464C90.1518 111.037 90.7278 110.461 91.1545 109.736C91.5812 109.011 91.7945 108.179 91.7945 107.24ZM75.4105 84.52V93.928H85.7145C86.4825 93.928 87.1865 93.7573 87.8265 93.416C88.5092 93.0747 89.0638 92.5627 89.4905 91.88C89.9172 91.1547 90.1305 90.2587 90.1305 89.192C90.1305 88.168 89.9385 87.3147 89.5545 86.632C89.2132 85.9493 88.7438 85.4373 88.1465 85.096C87.5492 84.712 86.8665 84.52 86.0985 84.52H75.4105ZM113.642 75.56L123.434 95.656L133.354 75.56H144.81L128.618 105.512V121H118.186V105.384L102.25 75.56H113.642ZM149.04 121V75.56H159.536V95.144L176.176 75.56H187.952L170.928 95.848L189.104 121H177.072L164.272 102.76L159.536 107.624V121H149.04ZM209.694 121.384C206.28 121.384 203.187 120.744 200.414 119.464C197.683 118.141 195.315 116.392 193.31 114.216C191.347 111.997 189.832 109.523 188.766 106.792C187.699 104.019 187.166 101.16 187.166 98.216C187.166 95.1867 187.72 92.3067 188.83 89.576C189.982 86.8453 191.56 84.4133 193.566 82.28C195.614 80.104 198.024 78.3973 200.798 77.16C203.571 75.9227 206.6 75.304 209.886 75.304C213.256 75.304 216.307 75.9653 219.038 77.288C221.811 78.568 224.179 80.3173 226.142 82.536C228.147 84.7547 229.683 87.2507 230.75 90.024C231.816 92.7547 232.35 95.5493 232.35 98.408C232.35 101.437 231.795 104.317 230.686 107.048C229.576 109.779 227.998 112.232 225.95 114.408C223.902 116.541 221.491 118.248 218.718 119.528C215.987 120.765 212.979 121.384 209.694 121.384ZM197.854 98.344C197.854 100.093 198.11 101.8 198.622 103.464C199.134 105.085 199.88 106.536 200.862 107.816C201.886 109.096 203.144 110.12 204.638 110.888C206.131 111.656 207.838 112.04 209.758 112.04C211.763 112.04 213.512 111.656 215.006 110.888C216.499 110.077 217.736 109.011 218.718 107.688C219.699 106.365 220.424 104.893 220.894 103.272C221.406 101.608 221.662 99.9227 221.662 98.216C221.662 96.4667 221.406 94.7813 220.894 93.16C220.382 91.5387 219.614 90.088 218.59 88.808C217.566 87.4853 216.307 86.4613 214.814 85.736C213.32 85.0107 211.635 84.648 209.758 84.648C207.752 84.648 206.003 85.032 204.51 85.8C203.059 86.568 201.822 87.6133 200.798 88.936C199.816 90.216 199.07 91.688 198.558 93.352C198.088 94.9733 197.854 96.6373 197.854 98.344ZM243.194 75.56L253.882 108.712L264.442 75.56H275.514L259.002 121H248.698L232.058 75.56H243.194ZM0.728 172.896C0.728 170.123 1.24 167.413 2.264 164.768C3.288 162.08 4.78133 159.648 6.744 157.472C8.70667 155.296 11.096 153.568 13.912 152.288C16.728 150.965 19.928 150.304 23.512 150.304C27.7787 150.304 31.4693 151.221 34.584 153.056C37.7413 154.891 40.088 157.28 41.624 160.224L33.56 165.856C32.8773 164.235 31.96 162.976 30.808 162.08C29.6987 161.184 28.4613 160.565 27.096 160.224C25.7733 159.84 24.4933 159.648 23.256 159.648C21.2507 159.648 19.5013 160.053 18.008 160.864C16.5147 161.632 15.2773 162.677 14.296 164C13.3147 165.323 12.5893 166.795 12.12 168.416C11.6507 170.037 11.416 171.659 11.416 173.28C11.416 175.072 11.6933 176.8 12.248 178.464C12.8027 180.128 13.592 181.6 14.616 182.88C15.6827 184.16 16.9627 185.184 18.456 185.952C19.9493 186.677 21.592 187.04 23.384 187.04C24.664 187.04 25.9653 186.827 27.288 186.4C28.6107 185.973 29.8267 185.312 30.936 184.416C32.088 183.477 32.9627 182.261 33.56 180.768L42.136 185.824C41.24 188.043 39.768 189.941 37.72 191.52C35.672 193.099 33.3467 194.315 30.744 195.168C28.184 195.979 25.6453 196.384 23.128 196.384C19.8427 196.384 16.8133 195.723 14.04 194.4C11.3093 193.035 8.94133 191.243 6.936 189.024C4.97333 186.763 3.43733 184.245 2.328 181.472C1.26133 178.656 0.728 175.797 0.728 172.896ZM66.6935 196.384C63.2802 196.384 60.1868 195.744 57.4135 194.464C54.6828 193.141 52.3148 191.392 50.3095 189.216C48.3468 186.997 46.8322 184.523 45.7655 181.792C44.6988 179.019 44.1655 176.16 44.1655 173.216C44.1655 170.187 44.7202 167.307 45.8295 164.576C46.9815 161.845 48.5602 159.413 50.5655 157.28C52.6135 155.104 55.0242 153.397 57.7975 152.16C60.5708 150.923 63.6002 150.304 66.8855 150.304C70.2562 150.304 73.3068 150.965 76.0375 152.288C78.8108 153.568 81.1788 155.317 83.1415 157.536C85.1468 159.755 86.6828 162.251 87.7495 165.024C88.8162 167.755 89.3495 170.549 89.3495 173.408C89.3495 176.437 88.7948 179.317 87.6855 182.048C86.5762 184.779 84.9975 187.232 82.9495 189.408C80.9015 191.541 78.4908 193.248 75.7175 194.528C72.9868 195.765 69.9788 196.384 66.6935 196.384ZM54.8535 173.344C54.8535 175.093 55.1095 176.8 55.6215 178.464C56.1335 180.085 56.8802 181.536 57.8615 182.816C58.8855 184.096 60.1442 185.12 61.6375 185.888C63.1308 186.656 64.8375 187.04 66.7575 187.04C68.7628 187.04 70.5122 186.656 72.0055 185.888C73.4988 185.077 74.7362 184.011 75.7175 182.688C76.6988 181.365 77.4242 179.893 77.8935 178.272C78.4055 176.608 78.6615 174.923 78.6615 173.216C78.6615 171.467 78.4055 169.781 77.8935 168.16C77.3815 166.539 76.6135 165.088 75.5895 163.808C74.5655 162.485 73.3068 161.461 71.8135 160.736C70.3202 160.011 68.6348 159.648 66.7575 159.648C64.7522 159.648 63.0028 160.032 61.5095 160.8C60.0588 161.568 58.8215 162.613 57.7975 163.936C56.8162 165.216 56.0695 166.688 55.5575 168.352C55.0882 169.973 54.8535 171.637 54.8535 173.344ZM105.911 170.016V196H95.4145V150.56H103.735L124.791 177.312V150.56H135.287V196H126.711L105.911 170.016ZM171.241 163.872C171.113 163.659 170.665 163.339 169.897 162.912C169.129 162.443 168.169 161.952 167.017 161.44C165.865 160.928 164.606 160.48 163.241 160.096C161.876 159.712 160.51 159.52 159.145 159.52C157.353 159.52 155.966 159.84 154.985 160.48C154.004 161.077 153.513 162.016 153.513 163.296C153.513 164.32 153.876 165.131 154.601 165.728C155.369 166.325 156.457 166.859 157.865 167.328C159.273 167.755 161.001 168.267 163.049 168.864C165.95 169.632 168.468 170.571 170.601 171.68C172.734 172.747 174.356 174.133 175.465 175.84C176.617 177.547 177.193 179.808 177.193 182.624C177.193 185.184 176.724 187.36 175.785 189.152C174.846 190.901 173.566 192.331 171.945 193.44C170.366 194.507 168.553 195.296 166.505 195.808C164.457 196.277 162.345 196.512 160.169 196.512C157.95 196.512 155.668 196.299 153.321 195.872C151.017 195.403 148.798 194.763 146.665 193.952C144.532 193.099 142.569 192.075 140.777 190.88L145.385 181.728C145.556 181.941 146.11 182.347 147.049 182.944C147.988 183.499 149.14 184.096 150.505 184.736C151.913 185.333 153.47 185.867 155.177 186.336C156.884 186.805 158.612 187.04 160.361 187.04C162.238 187.04 163.625 186.741 164.521 186.144C165.46 185.547 165.929 184.715 165.929 183.648C165.929 182.496 165.438 181.6 164.457 180.96C163.518 180.32 162.217 179.744 160.553 179.232C158.932 178.72 157.054 178.144 154.921 177.504C152.148 176.651 149.844 175.691 148.009 174.624C146.217 173.557 144.873 172.256 143.977 170.72C143.124 169.184 142.697 167.264 142.697 164.96C142.697 161.76 143.444 159.072 144.937 156.896C146.473 154.677 148.521 153.013 151.081 151.904C153.641 150.752 156.436 150.176 159.465 150.176C161.598 150.176 163.646 150.432 165.609 150.944C167.614 151.456 169.47 152.096 171.177 152.864C172.926 153.632 174.484 154.4 175.849 155.168L171.241 163.872ZM202.872 196.384C199.245 196.384 196.152 195.787 193.592 194.592C191.032 193.355 188.941 191.691 187.32 189.6C185.741 187.467 184.568 185.056 183.8 182.368C183.075 179.637 182.712 176.779 182.712 173.792V150.56H193.208V173.792C193.208 175.499 193.379 177.163 193.72 178.784C194.061 180.363 194.616 181.771 195.384 183.008C196.152 184.245 197.133 185.227 198.328 185.952C199.565 186.677 201.08 187.04 202.872 187.04C204.707 187.04 206.243 186.677 207.48 185.952C208.717 185.184 209.699 184.181 210.424 182.944C211.149 181.664 211.683 180.235 212.024 178.656C212.365 177.077 212.536 175.456 212.536 173.792V150.56H223.032V173.792C223.032 176.949 222.627 179.893 221.816 182.624C221.048 185.355 219.853 187.765 218.232 189.856C216.611 191.904 214.52 193.504 211.96 194.656C209.443 195.808 206.413 196.384 202.872 196.384ZM231.165 196V150.56H241.661V186.784H263.677V196H231.165ZM296.851 159.776H283.027V196H272.531V159.776H258.643V150.56H296.851V159.776ZM301.977 196V150.56H312.473V196H301.977ZM331.661 170.016V196H321.165V150.56H329.485L350.541 177.312V150.56H361.037V196H352.461L331.661 170.016ZM388.991 196.32C386.004 196.32 383.188 195.765 380.543 194.656C377.898 193.504 375.572 191.904 373.567 189.856C371.562 187.765 369.983 185.312 368.831 182.496C367.722 179.637 367.167 176.459 367.167 172.96C367.167 169.803 367.743 166.859 368.895 164.128C370.047 161.397 371.647 158.987 373.695 156.896C375.743 154.805 378.132 153.184 380.863 152.032C383.636 150.837 386.623 150.24 389.823 150.24C394.004 150.24 397.695 151.136 400.895 152.928C404.095 154.72 406.463 157.131 407.999 160.16L400.191 166.048C399.167 164.043 397.674 162.464 395.711 161.312C393.791 160.16 391.7 159.584 389.439 159.584C387.732 159.584 386.154 159.947 384.703 160.672C383.295 161.355 382.058 162.336 380.991 163.616C379.967 164.853 379.178 166.304 378.623 167.968C378.068 169.632 377.791 171.424 377.791 173.344C377.791 175.307 378.09 177.12 378.687 178.784C379.284 180.448 380.116 181.899 381.183 183.136C382.25 184.331 383.508 185.269 384.959 185.952C386.452 186.635 388.095 186.976 389.887 186.976C392.063 186.976 394.132 186.443 396.095 185.376C398.1 184.267 399.935 182.645 401.599 180.512V190.88C397.972 194.507 393.77 196.32 388.991 196.32ZM400.959 179.872H392.127V172.256H409.663V196H400.959V179.872Z" fill="black"/>
</svg>
