<svg width="617" height="83" viewBox="0 0 617 83" fill="none" xmlns="http://www.w3.org/2000/svg">
<g clip-path="url(#clip0_68_28)">
<path d="M176.182 2.24805H203.631L225.76 61.1258L247.707 2.24805H274.189V80.7517H256.595V20.7195L233.68 80.7517H215.602L192.688 21.0841V80.7517H176.243V2.24805H176.182Z" fill="white"/>
<path d="M389.064 2.24805H449.585V80.7517H430.842V18.7751H406.174C405.993 29.8337 405.69 44.5379 405.388 52.8622C404.723 73.4603 398.737 80.7517 381.204 80.7517H372.8V64.2246H377.455C385.376 64.2246 387.915 60.6397 388.459 49.4596C388.882 37.4289 389.064 13.6104 389.064 2.24805Z" fill="white"/>
<path d="M545.294 2.24805H616.456V18.7751H590.156V80.7517H571.594V18.7751H545.294V2.24805Z" fill="white"/>
<path d="M127.693 0.607422H120.982C104.899 0.607422 92.6861 10.4508 89.9049 25.0942L107.015 27.8893C109.373 20.9017 114.754 16.1623 121.526 15.8585C122.795 15.737 124.126 15.737 125.395 15.8585C135.492 16.2231 140.087 21.084 140.087 33.1147C120.921 33.1147 107.862 32.2033 98.188 38.5833C90.3282 43.8087 86.9424 49.5811 86.9424 58.6953C86.9424 71.9412 97.1602 82.3922 113.666 82.3922H115.963C127.632 82.3922 137.064 77.8351 140.873 72.3058V80.7516H158.104V33.4185C158.165 15.1901 148.431 0.607422 127.693 0.607422ZM117.173 67.0196C109.857 66.8373 105.625 62.5232 105.625 57.1762C105.625 52.7407 107.62 50.5532 110.28 48.9735C113.061 47.3329 116.689 46.786 122.251 46.6038C127.632 46.4215 131.985 46.1784 140.39 46.1784C140.39 59.5459 131.985 66.2904 121.586 67.0196C120.135 67.0803 118.684 67.1411 117.173 67.0196Z" fill="white"/>
<path d="M540.941 46.786V39.4339C540.941 14.0964 525.1 1.03271 504.664 1.03271H500.674C478.666 1.03271 464.639 16.1015 463.914 37.368C463.793 40.4668 463.793 41.8036 463.914 46.0569C464.398 67.2626 479.21 81.4807 498.921 82.0276C502.548 82.1491 502.065 82.1491 505.45 82.0276C522.621 81.5415 535.62 71.5766 539.49 58.5737L522.863 55.6572C518.812 63.7992 511.073 66.9588 504.846 67.2626C503.455 67.3233 502.065 67.3233 500.613 67.2626C490.879 66.8373 482.233 59.2421 482.233 48.1228V46.786H540.941ZM500.372 15.7977C501.883 15.6762 503.455 15.6762 505.027 15.7977C513.189 16.2231 521.775 21.5093 522.621 32.1425H482.415C483.322 22.6638 490.879 16.3446 500.372 15.7977Z" fill="white"/>
<path d="M367.661 34.573C367.237 15.5547 352.001 1.03271 331.868 1.03271H324.552C304.419 1.03271 289.183 15.5547 288.76 34.6945C288.639 39.9807 288.639 43.0796 288.76 48.3658C289.183 67.4449 304.419 82.0276 324.552 82.0276H331.868C352.001 82.0276 367.237 67.5056 367.661 48.3658C367.721 43.0188 367.721 39.8592 367.661 34.573ZM349.22 47.3936C348.978 58.5129 340.998 66.0474 330.175 66.5942C328.845 66.7157 327.515 66.7157 326.185 66.5942C315.302 66.0474 307.381 58.5129 307.14 47.3936C307.019 42.7758 307.019 40.163 307.14 35.5452C307.321 24.5474 315.241 17.0129 326.185 16.4661C327.515 16.3446 328.845 16.3446 330.175 16.4661C340.998 17.0129 349.039 24.5474 349.22 35.6667C349.341 40.2238 349.341 42.7758 349.22 47.3936Z" fill="white"/>
<path d="M57.921 53.0449C55.7445 60.3362 49.9402 65.3186 42.0804 66.4124C39.9642 66.7162 37.8481 66.7162 35.7925 66.4124C26.0583 65.0148 19.2263 57.6627 19.0449 47.394C18.924 42.7762 18.924 40.1634 19.0449 35.5456C19.2263 25.1554 26.4211 17.5602 36.3366 16.4665C37.9691 16.2842 39.541 16.2842 41.1735 16.4058C49.517 17.3172 55.8049 22.3604 58.042 29.9555L76.1801 26.4314C72.2502 11.4841 58.8279 0.911621 41.6571 0.911621H36.4575C16.2637 1.03314 1.02765 15.5551 0.604427 34.6949C0.543967 39.9812 0.543967 43.08 0.604427 48.3662C1.02765 67.4453 16.2637 82.028 36.4575 82.028H41.6571C59.1907 82.028 72.7339 71.0302 76.301 55.5968L57.921 53.0449Z" fill="white"/>
</g>
<defs>
<clipPath id="clip0_68_28">
<rect width="617" height="83" fill="white"/>
</clipPath>
</defs>
</svg>
